<?xml version="1.0" encoding="UTF-8"?>
<!-- Generated by Pixelmator Pro 3.7 -->
<svg width="16" height="16" viewBox="0 0 16 16" xmlns="http://www.w3.org/2000/svg">
    <clipPath id="clipPath1">
        <path d="M 0 0 L 16 0 L 16 16 L 0 16 Z"/>
    </clipPath>
    <g id="Group" clip-path="url(#clipPath1)">
        <path id="Path" fill="#666666" fill-rule="evenodd" stroke="none" visibility="hidden" d="M 10.27 14.1 C 11.907303 13.490002 13.23008 12.246519 13.94 10.65 C 13.113333 10.79 12.213333 10.903333 11.24 10.99 C 11.033333 12.21 10.71 13.243333 10.27 14.09 M 8 16 C 12.418278 16 16 12.418278 16 8 C 16 3.581722 12.418278 0 8 0 C 3.581722 0 0 3.581722 0 8 C 0 12.418278 3.581722 16 8 16 M 8.48 14.48 C 8.160378 14.501968 7.839623 14.501968 7.52 14.48 L 7.5 14.48 C 7.135838 14.099586 6.850378 13.651006 6.66 13.16 C 6.406667 12.566667 6.196667 11.873334 6.03 11.08 C 7.335881 11.144065 8.644118 11.144065 9.95 11.08 C 9.783333 11.88 9.573333 12.573333 9.32 13.16 C 9.128461 13.647448 8.84306 14.092536 8.48 14.47 Z M 11.42 9.72 C 12.526667 9.62 13.51 9.476666 14.37 9.29 C 14.529855 8.437428 14.529855 7.562572 14.37 6.71 C 13.503333 6.53 12.52 6.386667 11.42 6.280001 C 11.529821 7.424037 11.529821 8.575963 11.42 9.72 M 10.15 6.18 C 10.280272 7.389837 10.280272 8.610164 10.15 9.82 C 8.717757 9.899077 7.282243 9.899077 5.85 9.82 C 5.719728 8.610164 5.719728 7.389837 5.85 6.18 C 7.282243 6.100923 8.717757 6.100923 10.15 6.18 M 11.25 5.01 C 12.216667 5.096666 13.113333 5.21 13.94 5.35 C 13.227908 3.757269 11.905424 2.517665 10.27 1.91 C 10.703334 2.75 11.03 3.783333 11.25 5.01 M 8.48 1.5 L 8.49 1.52 C 8.763333 1.766667 9.043333 2.203334 9.33 2.83 C 9.583333 3.423333 9.793333 4.116667 9.96 4.91 C 8.654119 4.845935 7.345881 4.845935 6.04 4.91 C 6.206667 4.11 6.416667 3.416667 6.67 2.83 C 6.863354 2.33817 7.152251 1.88953 7.52 1.51 C 7.839623 1.488031 8.160378 1.488031 8.48 1.51 M 5.73 1.91 C 4.094576 2.517665 2.772092 3.757269 2.06 5.35 C 2.954184 5.194479 3.855175 5.08102 4.76 5.01 C 4.966667 3.79 5.29 2.756667 5.73 1.91 M 4.58 6.280001 C 3.473333 6.386667 2.49 6.53 1.63 6.71 C 1.470145 7.562572 1.470145 8.437428 1.63 9.29 C 2.496667 9.47 3.48 9.613334 4.58 9.72 C 4.470178 8.575963 4.470178 7.424037 4.58 6.280001 M 4.75 10.99 C 3.783333 10.91 2.886667 10.796666 2.06 10.65 C 2.772092 12.242731 4.094576 13.482335 5.73 14.09 C 5.296667 13.243333 4.97 12.21 4.75 10.99"/>
    </g>
    <text id="text1" xml:space="preserve"><tspan x="-11" y="78" font-family="Helvetica" font-size="112" fill="#000000" xml:space="preserve">🇮</tspan><tspan font-family="Apple Color Emoji" font-size="112" fill="#000000" xml:space="preserve">🇹</tspan></text>
</svg>
